<svg width="16" height="17" viewBox="0 0 16 17" fill="none" xmlns="http://www.w3.org/2000/svg">
<path fill-rule="evenodd" clip-rule="evenodd" d="M11.3333 8.31484C11.5101 8.31484 11.6797 8.38508 11.8047 8.5101C11.9298 8.63513 12 8.8047 12 8.98151C12 9.15832 11.9298 9.32789 11.8047 9.45291C11.6797 9.57794 11.5101 9.64817 11.3333 9.64817H8.66667V12.3148C8.66667 12.4917 8.59643 12.6612 8.4714 12.7862C8.34638 12.9113 8.17681 12.9815 8 12.9815C7.82319 12.9815 7.65362 12.9113 7.5286 12.7862C7.40357 12.6612 7.33333 12.4917 7.33333 12.3148V9.64817H4.66667C4.48986 9.64817 4.32029 9.57794 4.19526 9.45291C4.07024 9.32789 4 9.15832 4 8.98151C4 8.8047 4.07024 8.63513 4.19526 8.5101C4.32029 8.38508 4.48986 8.31484 4.66667 8.31484H7.33333V5.64817C7.33333 5.47136 7.40357 5.30179 7.5286 5.17677C7.65362 5.05174 7.82319 4.98151 8 4.98151C8.17681 4.98151 8.34638 5.05174 8.4714 5.17677C8.59643 5.30179 8.66667 5.47136 8.66667 5.64817V8.31484H11.3333Z" fill="#F5F3F6"/>
</svg>
